<svg width="267" height="35" viewBox="0 0 267 35" fill="none" xmlns="http://www.w3.org/2000/svg">
<path d="M24.42 6.74994L16.74 25.2299L11.58 26.7599L3.06 6.08994L-9.22009e-07 4.55994L0.959999 2.60994H12.15V4.28994L8.88 6.23994L15.33 22.0199L21.66 6.71994L17.07 4.55994L18.03 2.60994H27.72L27.69 4.28994L24.42 6.74994ZM38.4898 26.1899H29.0098V24.5099L31.6798 22.2599V15.2999L29.0098 13.5299V11.8499L34.8898 9.44994H36.7798V23.3399L39.4798 24.2399L38.4898 26.1899ZM34.1998 0.419941C35.0598 0.419941 35.7598 0.699941 36.2998 1.25994C36.8598 1.79994 37.1398 2.47994 37.1398 3.29994C37.1398 3.87994 36.9398 4.41994 36.5398 4.91994C36.1398 5.41994 35.6398 5.81994 35.0398 6.11994C34.4398 6.41994 33.8598 6.56994 33.2998 6.56994C32.4598 6.56994 31.7598 6.29994 31.1998 5.75994C30.6598 5.19994 30.3898 4.50994 30.3898 3.68994C30.3898 3.10994 30.5898 2.56994 30.9898 2.06994C31.3898 1.56994 31.8798 1.16994 32.4598 0.86994C33.0598 0.56994 33.6398 0.419941 34.1998 0.419941ZM58.6859 11.6999L51.0059 26.1899H47.2259L42.7559 15.3299L39.8459 13.6499V11.9699L46.4759 9.44994L47.6159 13.9799L50.8859 21.9599L54.5159 14.8799L50.2259 11.9699L51.1859 10.0199H58.6859V11.6999ZM77.2866 26.1899H70.4466V23.5799L67.0566 26.2499C66.6566 26.4099 66.1566 26.4899 65.5566 26.4899C63.6366 26.4899 62.2466 26.0199 61.3866 25.0799C60.5466 24.1399 60.1266 23.0099 60.1266 21.6899C60.1266 20.9099 60.3666 20.1499 60.8466 19.4099C61.3266 18.6499 62.0166 17.9499 62.9166 17.3099H70.4466V16.7999C70.4466 15.6999 70.1466 14.8899 69.5466 14.3699C68.9466 13.8499 68.1466 13.5899 67.1466 13.5899C65.7466 13.5899 63.9166 14.1399 61.6566 15.2399L60.7566 13.5299L64.9266 10.1699C65.9466 9.86994 67.1366 9.71994 68.4966 9.71994C70.7366 9.71994 72.4666 10.2299 73.6866 11.2499C74.9266 12.2699 75.5466 13.7499 75.5466 15.6899V23.1899L78.2466 24.2399L77.2866 26.1899ZM67.0866 22.4699C68.1066 22.4699 69.2266 22.0499 70.4466 21.2099V19.2899H65.6166C65.4566 19.5299 65.3366 19.7599 65.2566 19.9799C65.1966 20.1799 65.1666 20.4099 65.1666 20.6699C65.1666 21.1699 65.3366 21.5899 65.6766 21.9299C66.0366 22.2699 66.5066 22.4399 67.0866 22.4399V22.4699ZM102.407 2.00994C103.567 2.00994 104.917 2.15994 106.457 2.45994C108.017 2.75994 109.157 3.07994 109.877 3.41994V9.80994H107.027C105.487 6.90994 103.367 5.45994 100.667 5.45994C99.5666 5.45994 98.5566 5.80994 97.6366 6.50994C96.7166 7.20994 95.9866 8.16994 95.4466 9.38994C94.9266 10.6099 94.6666 11.9799 94.6666 13.4999C94.6666 15.2199 94.9266 16.7999 95.4466 18.2399C95.9866 19.6599 96.7966 20.7999 97.8766 21.6599C98.9566 22.4999 100.297 22.9199 101.897 22.9199C103.717 22.9199 106.307 21.9199 109.667 19.9199L110.867 21.8399L105.347 26.1299C104.467 26.3899 103.617 26.5599 102.797 26.6399C101.997 26.7399 101.137 26.7899 100.217 26.7899C97.9766 26.7899 95.9866 26.2799 94.2466 25.2599C92.5066 24.2399 91.1566 22.8399 90.1966 21.0599C89.2366 19.2599 88.7566 17.2199 88.7566 14.9399C88.7566 12.5999 89.4766 10.4399 90.9166 8.45994C92.3566 6.45994 94.1466 4.88994 96.2866 3.74994C98.4266 2.58994 100.467 2.00994 102.407 2.00994ZM122.294 26.1899H112.814V24.5099L115.484 22.2599V5.84994L112.814 4.07994V2.39994L118.694 -5.93662e-05H120.584V23.3399L123.284 24.2399L122.294 26.1899ZM142.355 26.1899H135.515V23.5799L132.125 26.2499C131.725 26.4099 131.225 26.4899 130.625 26.4899C128.705 26.4899 127.315 26.0199 126.455 25.0799C125.615 24.1399 125.195 23.0099 125.195 21.6899C125.195 20.9099 125.435 20.1499 125.915 19.4099C126.395 18.6499 127.085 17.9499 127.985 17.3099H135.515V16.7999C135.515 15.6999 135.215 14.8899 134.615 14.3699C134.015 13.8499 133.215 13.5899 132.215 13.5899C130.815 13.5899 128.985 14.1399 126.725 15.2399L125.825 13.5299L129.995 10.1699C131.015 9.86994 132.205 9.71994 133.565 9.71994C135.805 9.71994 137.535 10.2299 138.755 11.2499C139.995 12.2699 140.615 13.7499 140.615 15.6899V23.1899L143.315 24.2399L142.355 26.1899ZM132.155 22.4699C133.175 22.4699 134.295 22.0499 135.515 21.2099V19.2899H130.685C130.525 19.5299 130.405 19.7599 130.325 19.9799C130.265 20.1799 130.235 20.4099 130.235 20.6699C130.235 21.1699 130.405 21.5899 130.745 21.9299C131.105 22.2699 131.575 22.4399 132.155 22.4399V22.4699ZM162.426 11.6699L154.746 26.1599L147.696 34.0799L145.806 32.6099C147.286 30.8299 148.326 29.2999 148.926 28.0199C149.526 26.7599 149.866 25.3099 149.946 23.6699L146.496 15.3299L143.586 13.6499V11.9699L150.216 9.44994L151.356 13.9799L154.626 21.9599L158.256 14.8799L153.966 11.9699L154.926 10.0199L162.426 9.98994V11.6699ZM191.117 11.6999L184.127 26.1899H180.347L177.707 19.7399L174.287 26.1899H170.507L166.037 15.3299L163.127 13.6499V11.9699L169.757 9.44994L170.897 13.9799L174.167 21.9299L176.597 17.0699L175.907 15.3599L172.967 13.6499V11.9699L179.597 9.44994L180.737 13.9799L183.977 21.7799L187.097 14.9699L182.627 11.9699L183.617 10.0199H191.117V11.6999ZM202.511 9.71994C203.991 9.71994 205.311 10.0699 206.471 10.7699C207.631 11.4499 208.531 12.3899 209.171 13.5899C209.831 14.7899 210.161 16.1199 210.161 17.5799C210.161 19.1599 209.651 20.6399 208.631 22.0199C207.611 23.3799 206.331 24.4699 204.791 25.2899C203.271 26.0899 201.801 26.4899 200.381 26.4899C198.921 26.4899 197.601 26.1499 196.421 25.4699C195.261 24.7699 194.351 23.8199 193.691 22.6199C193.051 21.4199 192.731 20.0899 192.731 18.6299C192.731 17.0499 193.241 15.5799 194.261 14.2199C195.281 12.8399 196.551 11.7499 198.071 10.9499C199.611 10.1299 201.091 9.71994 202.511 9.71994ZM200.771 13.1999C199.931 13.1999 199.291 13.5399 198.851 14.2199C198.431 14.8799 198.221 15.8699 198.221 17.1899C198.221 18.8699 198.561 20.2699 199.241 21.3899C199.921 22.4899 200.881 23.0399 202.121 23.0399C202.941 23.0399 203.561 22.6999 203.981 22.0199C204.421 21.3199 204.641 20.3099 204.641 18.9899C204.641 17.3099 204.301 15.9299 203.621 14.8499C202.941 13.7499 201.991 13.1999 200.771 13.1999ZM223.1 13.9799C222.38 13.9799 221.66 14.2999 220.94 14.9399V23.0399L225.5 24.2399L224.54 26.1899H213.17V24.5099L215.84 22.2599V15.4499L213.17 13.7699V12.0899L219.41 9.44994L220.55 12.7799L223.28 9.95994C223.7 9.79994 224.19 9.71994 224.75 9.71994C225.79 9.71994 226.68 9.95994 227.42 10.4399C228.18 10.9199 228.71 11.5799 229.01 12.4199L226.13 16.0199H224.24C224.22 15.2999 224.12 14.7899 223.94 14.4899C223.76 14.1699 223.48 14.0099 223.1 14.0099V13.9799ZM240.12 24.2399L239.13 26.1899H229.65V24.5099L232.32 22.2599V5.84994L229.65 4.07994V2.39994L235.53 -5.93662e-05H237.42V23.3399L240.12 24.2399ZM249.69 26.1599H243.48L238.59 18.1199L243.87 13.9199L240.21 11.9399L241.17 9.98994H249.84V11.6699L243.63 16.7699L247.68 23.0699L250.65 24.2099L249.69 26.1599ZM260.952 22.3799C260.952 21.9999 260.692 21.6199 260.172 21.2399C259.652 20.8399 258.852 20.3399 257.772 19.7399C256.712 19.1399 255.862 18.6299 255.222 18.2099C254.582 17.7699 254.022 17.2799 253.542 16.7399C253.082 16.1799 252.852 15.5799 252.852 14.9399C252.852 14.2199 253.192 13.4499 253.872 12.6299C254.572 11.8099 255.422 11.1199 256.422 10.5599C257.422 9.99994 258.342 9.71994 259.182 9.71994C260.202 9.71994 261.392 9.83994 262.752 10.0799C264.132 10.2999 265.132 10.5499 265.752 10.8299V15.8399H263.862C263.322 14.8399 262.672 14.0599 261.912 13.4999C261.172 12.9399 260.402 12.6599 259.602 12.6599C259.202 12.6599 258.882 12.7799 258.642 13.0199C258.402 13.2399 258.282 13.5099 258.282 13.8299C258.282 14.2499 258.542 14.6599 259.062 15.0599C259.602 15.4599 260.452 15.9899 261.612 16.6499C263.152 17.4899 264.332 18.2499 265.152 18.9299C265.992 19.6099 266.412 20.3899 266.412 21.2699C266.412 22.0099 266.052 22.7899 265.332 23.6099C264.632 24.4099 263.762 25.0899 262.722 25.6499C261.702 26.2099 260.762 26.4899 259.902 26.4899C258.802 26.4899 257.492 26.3799 255.972 26.1599C254.472 25.9199 253.402 25.6599 252.762 25.3799V20.1899H254.652C255.252 21.2499 255.992 22.0799 256.872 22.6799C257.752 23.2599 258.622 23.5499 259.482 23.5499C259.922 23.5499 260.272 23.4399 260.532 23.2199C260.812 22.9799 260.952 22.6999 260.952 22.3799Z" fill="white"/>
</svg>
